<svg width="183.998779" height="32.050049" viewBox="0 0 183.999 32.05" fill="none" xmlns="http://www.w3.org/2000/svg" xmlns:xlink="http://www.w3.org/1999/xlink">
	<desc>
			Created with Pixso.
	</desc>
	<defs/>
	<path id="并集" d="M62.1482 21.1301L61.0681 24.4202L57.4382 24.4202L63.0981 7.63013L67.6982 7.63013L73.3481 24.4202L69.7183 24.4202L65.4082 11.0801L63.1182 18.0901L66.4583 18.0901L67.4382 21.1301L62.1482 21.1301ZM75.5579 24.4202L75.5579 7.63013L78.7278 7.63013L85.8879 18.3401L85.8879 7.63013L89.3179 7.63013L89.3179 24.4202L86.1179 24.4202L78.9978 14.0001L78.9978 24.4202L75.5579 24.4202ZM96.8184 10.6702L91.7283 10.6702L91.7283 7.63013L105.368 7.63013L105.368 10.6702L100.278 10.6702L100.278 24.4202L96.8184 24.4202L96.8184 10.6702ZM109.448 21.1301L108.368 24.4202L104.728 24.4202L110.388 7.63013L114.988 7.63013L120.648 24.4202L117.008 24.4202L112.698 11.0801L110.408 18.0901L113.748 18.0901L114.738 21.1301L109.448 21.1301ZM134.418 24.4202L122.838 24.4202L122.838 7.63013L126.288 7.63013L126.288 21.3801L134.418 21.3801L134.418 24.4202ZM137.269 24.4202L137.269 7.63013L144.109 7.63013C145.479 7.63013 146.609 7.90015 147.509 8.44019C148.419 8.99011 149.099 9.69019 149.549 10.5502C150.009 11.4001 150.239 12.2902 150.239 13.2101C150.239 14.1602 150.009 15.0701 149.549 15.9202C149.099 16.7701 148.419 17.4801 147.509 18.0201C146.609 18.5602 145.479 18.8401 144.109 18.8401L140.729 18.8401L140.729 24.4202L137.269 24.4202ZM152.508 7.63013L155.968 7.63013L155.968 14.3201L162.428 14.3201L162.428 7.63013L165.888 7.63013L165.888 24.4202L162.428 24.4202L162.428 17.3601L155.968 17.3601L155.968 24.4202L152.508 24.4202L152.508 7.63013ZM173.739 7.63013L178.349 7.63013L183.999 24.4202L180.359 24.4202L176.049 11.0801L173.769 18.0901L177.109 18.0901L178.089 21.1301L172.799 21.1301L171.719 24.4202L168.089 24.4202L173.739 7.63013ZM144.118 10.6907C144.698 10.6907 145.188 10.8107 145.578 11.0607C145.968 11.3007 146.258 11.6207 146.458 12.0106C146.658 12.4006 146.758 12.8107 146.758 13.2307C146.758 13.6707 146.658 14.0807 146.458 14.4707C146.258 14.8507 145.968 15.1707 145.578 15.4207C145.188 15.6707 144.698 15.8007 144.118 15.8007L140.728 15.8007L140.728 10.6907L144.118 10.6907Z" clip-rule="evenodd" fill="#232323" fill-opacity="1.000000" fill-rule="evenodd"/>
	<path id="并集" d="M21.2703 0L21.2703 7.95996L8.49023 15.1899L1.05029 11.24L21.2703 0ZM0 12.79L21.3101 24.0901L21.3101 32.05L0 20.6801L0 12.79Z" clip-rule="evenodd" fill="#232323" fill-opacity="1.000000" fill-rule="evenodd"/>
	<path id="并集" d="M48.1846 19.25L26.8745 7.95996L26.8745 0L48.1846 11.37L48.1846 19.25ZM26.9148 32.05L26.9148 24.0801L39.6848 16.8601L47.1348 20.8101L26.9148 32.05Z" clip-rule="evenodd" fill="#232323" fill-opacity="1.000000" fill-rule="evenodd"/>
</svg>
