<svg width="5000" height="597" viewBox="0 0 5000 597" fill="none" xmlns="http://www.w3.org/2000/svg">
<path d="M521.911 586.168V6.96751H616.805V586.168H521.911Z" fill="#232323"/>
<path d="M0 586.168V4.9421H94.894V586.168H0Z" fill="#232323"/>
<path fill-rule="evenodd" clip-rule="evenodd" d="M256.292 165.115C259.982 197.472 260.058 241.84 260.058 306.607L260.058 309.863C260.056 365.116 260.055 411.139 264.508 446.79C269.079 483.379 279.39 519.589 308.894 545.831C337.211 571.018 374.905 579.369 413.743 583.207C452.827 587.07 503.715 587.069 566.648 587.068H569.365V490.371C503.073 490.371 457.003 490.314 423.254 486.978C388.697 483.563 377.462 477.407 373.159 473.579C370.043 470.808 364.044 463.497 360.46 434.804C356.846 405.871 356.755 365.96 356.755 306.607L356.755 303.546C356.757 242.594 356.758 192.657 352.366 154.157C347.929 115.251 338.098 77.3685 309.524 49.5332C281.208 21.9481 242.969 12.5623 203.518 8.29206C164.209 4.03723 113.129 4.03807 50.3863 4.03909L47.448 4.03913V100.737C113.839 100.737 159.638 100.805 193.112 104.428C227.055 108.102 237.746 114.605 242.049 118.797C246.096 122.739 252.574 132.523 256.292 165.115Z" fill="#232323"/>
<path d="M1126.81 596.965C1085.57 596.965 1047.36 589.542 1012.17 574.696C976.978 559.85 946.186 539.231 919.793 512.838C893.95 485.895 873.881 454.279 859.585 417.989C845.289 381.699 838.141 342.11 838.141 299.222C838.141 256.333 845.289 216.744 859.585 180.454C873.881 144.164 893.95 112.823 919.793 86.4301C946.186 59.4875 976.978 38.5933 1012.17 23.7474C1047.36 8.90146 1085.57 1.47852 1126.81 1.47852C1168.6 1.47852 1207.09 8.90146 1242.28 23.7474C1277.47 38.5933 1307.99 59.4875 1333.83 86.4301C1359.67 113.373 1379.74 144.989 1394.04 181.279C1408.33 217.019 1415.48 256.333 1415.48 299.222C1415.48 341.56 1408.33 380.874 1394.04 417.164C1379.74 453.454 1359.67 485.071 1333.83 512.013C1307.99 538.956 1277.47 559.85 1242.28 574.696C1207.09 589.542 1168.6 596.965 1126.81 596.965ZM1126.81 494.693C1153.2 494.693 1177.12 490.019 1198.57 480.672C1220.56 470.774 1239.53 457.028 1255.48 439.433C1271.42 421.288 1283.79 400.394 1292.59 376.75C1301.94 353.107 1306.61 327.264 1306.61 299.222C1306.61 271.179 1301.94 245.336 1292.59 221.693C1283.79 198.049 1271.42 177.43 1255.48 159.835C1239.53 141.69 1220.56 127.944 1198.57 118.596C1177.12 108.699 1153.2 103.75 1126.81 103.75C1100.97 103.75 1077.05 108.699 1055.06 118.596C1033.06 127.944 1014.09 141.415 998.147 159.01C982.201 176.605 969.829 197.225 961.032 220.868C952.234 244.512 947.836 270.629 947.836 299.222C947.836 327.264 952.234 353.382 961.032 377.575C969.829 401.219 982.201 421.838 998.147 439.433C1014.09 457.028 1033.06 470.774 1055.06 480.672C1077.05 490.019 1100.97 494.693 1126.81 494.693Z" fill="#232323"/>
<path d="M1638.97 588.717V11.3758H1889.7C1924.34 11.3758 1955.96 19.6235 1984.55 36.119C2013.14 52.0646 2035.69 74.0586 2052.18 102.101C2069.23 129.593 2077.75 160.66 2077.75 195.3C2077.75 228.291 2069.23 258.808 2052.18 286.85C2035.69 314.342 2013.14 336.336 1984.55 352.832C1956.51 368.778 1924.89 376.75 1889.7 376.75H1743.72V588.717H1638.97ZM1973.83 588.717L1827.02 328.089L1937.54 307.469L2100.84 589.542L1973.83 588.717ZM1743.72 283.551H1890.53C1906.47 283.551 1920.22 279.977 1931.76 272.829C1943.86 265.131 1953.21 254.684 1959.81 241.488C1966.41 228.291 1969.7 213.72 1969.7 197.775C1969.7 179.63 1965.58 163.959 1957.33 150.762C1949.08 137.566 1937.54 127.119 1922.69 119.421C1907.85 111.723 1890.8 107.874 1871.56 107.874H1743.72V283.551Z" fill="#232323"/>
<path d="M2321.28 588.717V11.3758H2553.04C2594.83 11.3758 2632.49 18.2489 2666.03 31.9951C2700.12 45.7413 2729.26 65.5359 2753.46 91.3788C2778.2 117.222 2796.9 147.738 2809.54 182.929C2822.74 218.119 2829.34 257.158 2829.34 300.046C2829.34 342.935 2822.74 382.249 2809.54 417.989C2796.9 453.179 2778.48 483.696 2754.28 509.539C2730.09 534.832 2700.95 554.352 2666.86 568.098C2632.77 581.844 2594.83 588.717 2553.04 588.717H2321.28ZM2428.5 505.415L2420.25 489.744H2548.91C2575.86 489.744 2599.78 485.346 2620.67 476.548C2642.11 467.75 2660.26 455.104 2675.1 438.608C2689.95 422.113 2701.22 402.318 2708.92 379.225C2716.62 355.581 2720.47 329.188 2720.47 300.046C2720.47 270.904 2716.62 244.787 2708.92 221.693C2701.22 198.049 2689.68 177.98 2674.28 161.485C2659.43 144.989 2641.56 132.343 2620.67 123.545C2599.78 114.747 2575.86 110.349 2548.91 110.349H2417.78L2428.5 96.3275V505.415Z" fill="#232323"/>
<path d="M1221.41 130.829L1130.4 0L1033.7 130.829C1087.73 102.388 1167.37 102.388 1221.41 130.829Z" fill="#232323"/>
<path d="M3056.5 588.681L3278.06 5.65234H3334.69L3553.74 588.681H3507.1L3356.35 185.558C3349.68 168.345 3343.85 153.075 3338.86 139.749C3334.41 126.423 3329.97 113.652 3325.53 101.436C3321.09 89.2198 3316.65 76.4487 3312.2 63.1224C3307.76 49.2407 3302.76 33.6933 3297.21 16.48H3311.37C3305.82 34.8038 3300.54 50.9065 3295.55 64.7882C3291.1 78.6698 3286.38 91.9962 3281.39 104.767C3276.94 116.983 3272.22 130.032 3267.23 143.914C3262.23 157.24 3256.4 172.787 3249.74 190.556L3099.81 588.681H3056.5ZM3147.29 412.94L3163.12 371.295H3448.8L3464.62 412.94H3147.29Z" fill="#232323"/>
<path d="M3848.14 588.681V5.65234H4058.03C4092.46 5.65234 4123 13.4261 4149.65 28.9735C4176.86 44.5209 4198.24 65.6211 4213.78 92.2738C4229.33 118.371 4237.11 148.078 4237.11 181.394C4237.11 214.71 4229.61 243.861 4214.62 268.848C4200.18 293.835 4179.91 313.547 4153.82 327.984C4128.27 341.866 4099.12 348.807 4066.36 348.807H3889.79V588.681H3848.14ZM4211.29 588.681L4066.36 337.979L4101.34 316.324L4259.59 588.681H4211.29ZM3889.79 307.162H4071.36C4095.24 307.162 4116.34 301.887 4134.66 291.337C4152.98 280.787 4167.14 266.072 4177.14 247.193C4187.69 228.314 4192.96 206.936 4192.96 183.06C4192.96 156.962 4187.13 133.641 4175.47 113.096C4163.81 92.5515 4147.43 76.4488 4126.33 64.7882C4105.79 53.1276 4082.19 47.2973 4055.53 47.2973H3889.79V307.162Z" fill="#232323"/>
<path d="M4577.72 407.942V352.138L4930.87 5.65234H4989.17L4577.72 407.942ZM4553.57 588.681V5.65234H4595.21V588.681H4553.57ZM4947.53 588.681L4703.49 265.517L4733.47 237.198L5000 588.681H4947.53Z" fill="#232323"/>
</svg>
